<?xml version="1.0" encoding="utf-8"?>
<!-- Generator: Adobe Illustrator 24.3.0, SVG Export Plug-In . SVG Version: 6.00 Build 0)  -->
<svg version="1.1" id="Layer_1" xmlns="http://www.w3.org/2000/svg" xmlns:xlink="http://www.w3.org/1999/xlink" x="0px" y="0px"
	 viewBox="0 0 1024 320.37" style="enable-background:new 0 0 1024 320.37;" xml:space="preserve">
<style type="text/css">
	.st0{fill:#FFFFFF;}
</style>
<g>
	<polygon class="st0" points="485.75,276.72 474.69,296.22 358.58,296.22 370.58,276.72 	"/>
	<polygon class="st0" points="121.3,226.9 148.31,226.95 83.76,294.97 56.04,294.97 	"/>
	<polygon class="st0" points="315.93,24.15 342.93,24.2 289.66,79.81 262.57,79.79 	"/>
	<polygon class="st0" points="261.11,148.61 261.1,168.1 142.44,168.17 142.43,148.61 	"/>
	<polygon class="st0" points="261.1,275.46 261.1,294.88 56.04,294.96 75.27,274.65 	"/>
	<polygon class="st0" points="142.44,24.15 142.43,43.65 324.35,43.64 342.93,24.15 	"/>
	<rect x="777.36" y="150.75" class="st0" width="19.5" height="145.44"/>
	<polygon class="st0" points="511.48,191.67 533.99,191.67 474.69,296.22 452.1,296.22 	"/>
	<polygon class="st0" points="727.55,296.19 708.05,296.19 708.14,24.85 727.55,24.85 	"/>
	<polygon class="st0" points="672.46,296.22 650.09,296.14 511.48,47.87 523.57,28.07 	"/>
	<polygon class="st0" points="358.58,296.22 381.49,296.21 535.34,49.27 523.57,28.07 	"/>
	<polygon class="st0" points="914.75,80.56 887.67,80.56 943.54,24.85 967.96,24.85 	"/>
	<polygon class="st0" points="889.09,206.46 862.01,206.46 915.8,150.75 942.3,150.75 	"/>
	<polygon class="st0" points="942.3,150.75 923.67,170.25 796.86,170.25 796.86,150.75 	"/>
	<polygon class="st0" points="967.96,24.85 949.34,44.35 777.36,44.35 777.36,24.85 	"/>
	<path class="st0" d="M261.11,294.93v-19.47c29.44,0,53.41-24.31,53.41-53.76s-23.96-53.62-53.41-53.62l0.01-19.46
		c40.35,0,73.18,32.73,73.18,73.08S301.47,294.93,261.11,294.93z"/>
	<path class="st0" d="M142.42,168.17l0.01-19.56c-29.44,0-53.41-22.62-53.41-52.06s23.96-52.89,53.41-52.89l-0.01-19.51
		c-40.35,0-73.18,32.05-73.18,72.4S102.06,168.17,142.42,168.17z"/>
	<rect x="727.55" y="276.69" class="st0" width="18.36" height="19.5"/>
	<rect x="689.68" y="24.85" class="st0" width="18.45" height="19.5"/>
</g>
</svg>
